<svg xmlns="http://www.w3.org/2000/svg" width="50" height="50" viewBox="0 0 50 50">
    <g fill="none" fill-rule="evenodd">
        <path d="M0 0H50V50H0z"/>
        <path fill="#F2F4F8" fill-rule="nonzero" d="M24.008 4.167c-6.575 0-11.905 5.329-11.905 11.904 0 8.504 11.905 21.826 11.905 21.826S35.913 24.575 35.913 16.07c0-6.575-5.33-11.904-11.905-11.904zm0 7.653c2.35 0 4.251 1.902 4.251 4.251 0 2.348-1.904 4.252-4.251 4.252-2.347 0-4.251-1.902-4.251-4.252 0-2.349 1.902-4.25 4.25-4.25zM9.724 31.944l-5.557 13.89h39.682l-5.557-13.89h-4.735c-.963 1.45-1.929 2.794-2.818 3.969h4.871l2.38 5.952H10.026l2.38-5.952h4.87c-.888-1.175-1.854-2.518-2.817-3.969H9.724z"/>
    </g>
</svg>
