<svg xmlns="http://www.w3.org/2000/svg" width="50" height="50" viewBox="0 0 50 50">
    <g fill="none" fill-rule="evenodd">
        <path fill="#F2F4F8" fill-rule="nonzero" d="M25 4.167C13.518 4.167 4.167 13.518 4.167 25c0 11.482 9.351 20.833 20.833 20.833h10.417v-4.166H25C15.77 41.667 8.333 34.23 8.333 25 8.333 15.77 15.77 8.333 25 8.333c9.23 0 16.667 7.436 16.667 16.667v3.125c0 1.752-1.374 3.125-3.125 3.125-1.752 0-3.125-1.373-3.125-3.125V25c0-5.728-4.689-10.417-10.417-10.417S14.583 19.272 14.583 25 19.272 35.417 25 35.417c2.945 0 5.6-1.253 7.5-3.235 1.314 1.945 3.537 3.235 6.042 3.235 4.002 0 7.291-3.29 7.291-7.292V25c0-11.482-9.351-20.833-20.833-20.833zm0 14.583c3.476 0 6.25 2.774 6.25 6.25s-2.774 6.25-6.25 6.25-6.25-2.774-6.25-6.25 2.774-6.25 6.25-6.25z"/>
        <path d="M0 0H50V50H0z"/>
    </g>
</svg>
