<svg xmlns="http://www.w3.org/2000/svg" width="50" height="50" viewBox="0 0 50 50">
    <g fill="none" fill-rule="evenodd">
        <path d="M0 0H50V50H0z"/>
        <path fill="#141d20" fill-rule="nonzero" d="M25 4.167C13.494 4.167 4.167 13.494 4.167 25c0 10.444 7.693 19.069 17.718 20.575V30.521h-5.154v-5.477h5.154V21.4c0-6.033 2.94-8.681 7.955-8.681 2.402 0 3.67.177 4.272.258v4.78h-3.42c-2.13 0-2.873 2.018-2.873 4.293v2.994h6.24l-.846 5.477H27.82v15.098C37.99 44.242 45.833 35.546 45.833 25c0-11.506-9.327-20.833-20.833-20.833z"/>
    </g>
</svg>
