<svg xmlns="http://www.w3.org/2000/svg" width="50" height="50" viewBox="0 0 50 50">
    <g fill="none" fill-rule="evenodd">
        <path d="M0 0H50V50H0z"/>
        <path fill="#141d20" fill-rule="nonzero"
              d="M16.667 6.25c-5.752 0-10.417 4.665-10.417 10.417v16.666c0 5.752 4.665 10.417 10.417 10.417h16.666c5.752 0 10.417-4.665 10.417-10.417V16.667c0-5.752-4.665-10.417-10.417-10.417H16.667zM37.5 10.417c1.15 0 2.083.933 2.083 2.083 0 1.15-.933 2.083-2.083 2.083-1.15 0-2.083-.933-2.083-2.083 0-1.15.933-2.083 2.083-2.083zM25 14.583c5.752 0 10.417 4.665 10.417 10.417S30.752 35.417 25 35.417 14.583 30.752 14.583 25 19.248 14.583 25 14.583zm0 4.167c-3.452 0-6.25 2.798-6.25 6.25s2.798 6.25 6.25 6.25 6.25-2.798 6.25-6.25-2.798-6.25-6.25-6.25z"/>
    </g>
</svg>
