<svg xmlns="http://www.w3.org/2000/svg" width="16" height="16" viewBox="0 0 16 16">
    <g fill="none" fill-rule="evenodd">
        <path d="M0 0H16V16H0z"/>
        <path fill="#F2F4F8" fill-rule="nonzero" d="M8 0c3.59 0 6.5 2.951 6.5 6.591 0 4.335-4.226 6.351-4.755 6.834-.542.494-.988 1.484-1.168 2.11-.088.304-.333.458-.577.465-.243-.007-.49-.161-.577-.465-.18-.627-.627-1.616-1.168-2.11l-.094-.075C5.351 12.754 1.5 10.73 1.5 6.59 1.5 2.951 4.41 0 8 0zm0 4.708c-1.026 0-1.857.843-1.857 1.883S6.973 8.474 8 8.474c1.026 0 1.857-.842 1.857-1.883 0-1.04-.83-1.883-1.857-1.883z"/>
    </g>
</svg>
