<svg xmlns="http://www.w3.org/2000/svg" width="50" height="50" viewBox="0 0 50 50">
    <g fill="none" fill-rule="evenodd">
        <path d="M0 0H50V50H0z"/>
        <path fill="#141d20" fill-rule="nonzero" d="M45.833 8.333c-1.625.965-4.885 2.28-6.802 2.659-.056.014-.102.033-.156.048-1.694-1.671-4.015-2.707-6.583-2.707-5.177 0-9.375 4.198-9.375 9.375 0 .273-.023.775 0 1.042-6.986 0-12.302-3.658-16.115-8.333-.414 1.041-.596 2.687-.596 4.233 0 2.919 2.282 5.785 5.834 7.562-.655.17-1.375.29-2.125.29-1.21 0-2.492-.319-3.665-1.285v.106c0 4.08 4.33 6.856 8.18 7.63-.782.46-2.357.505-3.126.505-.542 0-2.458-.248-2.97-.343 1.07 3.343 4.933 5.223 8.614 5.29-2.88 2.258-4.877 3.095-10.773 3.095H4.167c3.725 2.388 8.468 4.169 13.223 4.169 15.479 0 24.277-11.798 24.277-22.919 0-.18-.005-.554-.01-.931 0-.038.01-.073.01-.11 0-.057-.017-.111-.017-.167-.006-.284-.012-.548-.019-.686 1.646-1.187 3.073-2.669 4.202-4.356-1.51.67-3.13 1.12-4.833 1.325 1.737-1.042 4.206-3.525 4.833-5.492z"/>
    </g>
</svg>
