<svg xmlns="http://www.w3.org/2000/svg" width="50" height="50" viewBox="0 0 50 50">
    <g fill="none" fill-rule="evenodd">
        <path d="M0 0H50V50H0z"/>
        <path fill="#141d20" fill-rule="nonzero"
              d="M39.744 10.267c-3.93-3.932-9.154-6.098-14.721-6.1-11.47 0-20.806 9.33-20.81 20.802-.003 3.666.956 7.246 2.777 10.4L4.167 45.833l10.902-2.577c3.04 1.659 6.46 2.532 9.943 2.534h.009c11.469 0 20.804-9.334 20.81-20.802.004-5.56-2.158-10.788-6.087-14.721zm-4.54 22.137c-.433 1.215-2.556 2.386-3.51 2.471-.954.087-1.848.431-6.24-1.3-5.285-2.083-8.623-7.502-8.881-7.848-.26-.348-2.123-2.819-2.123-5.377s1.344-3.817 1.82-4.335c.478-.521 1.04-.65 1.388-.65.346 0 .694 0 .996.012.371.015.781.033 1.171.898.463 1.03 1.473 3.6 1.602 3.86.13.26.217.565.044.91-.173.347-.26.563-.519.867-.26.305-.546.678-.78.91-.26.26-.53.543-.228 1.061.304.521 1.346 2.223 2.891 3.6 1.988 1.771 3.66 2.32 4.182 2.582.52.26.823.216 1.127-.132.304-.346 1.3-1.516 1.646-2.037.345-.521.693-.434 1.17-.26.477.172 3.034 1.43 3.553 1.691.52.26.866.39.995.606.13.215.13 1.257-.304 2.471z"/>
    </g>
</svg>
