<svg xmlns="http://www.w3.org/2000/svg"><symbol id="address" viewBox="0 0 50 50"><g fill="none" fill-rule="evenodd"><path d="M0 0h50v50H0z"/><path fill="#F2F4F8" fill-rule="nonzero" d="M24.008 4.167c-6.575 0-11.905 5.329-11.905 11.904 0 8.504 11.905 21.826 11.905 21.826S35.913 24.575 35.913 16.07c0-6.575-5.33-11.904-11.905-11.904zm0 7.653a4.252 4.252 0 110 8.5 4.252 4.252 0 01-.001-8.499zM9.724 31.944l-5.557 13.89h39.682l-5.557-13.89h-4.735a79.77 79.77 0 01-2.818 3.969h4.871l2.38 5.952H10.026l2.38-5.952h4.87a79.977 79.977 0 01-2.817-3.969H9.724z"/></g></symbol><symbol id="check" viewBox="0 0 16 16"><g fill="none" fill-rule="evenodd"><path d="M0 2h16v16H0z" transform="translate(0 -2)"/><path fill="#F2F4F8" fill-rule="nonzero" d="M14 4v2.286H4.286V12H2V4z" transform="scale(1 -1) rotate(45 24.9 1)"/></g></symbol><symbol id="email" viewBox="0 0 50 50"><g fill="none" fill-rule="evenodd"><path fill="#F2F4F8" fill-rule="nonzero" d="M25 4.167C13.518 4.167 4.167 13.518 4.167 25c0 11.482 9.351 20.833 20.833 20.833h10.417v-4.166H25A16.635 16.635 0 018.333 25C8.333 15.77 15.77 8.333 25 8.333S41.667 15.769 41.667 25v3.125a3.093 3.093 0 01-3.125 3.125 3.092 3.092 0 01-3.125-3.125V25c0-5.728-4.689-10.417-10.417-10.417S14.583 19.272 14.583 25 19.272 35.417 25 35.417c2.945 0 5.6-1.253 7.5-3.235 1.314 1.945 3.537 3.235 6.042 3.235 4.002 0 7.291-3.29 7.291-7.292V25c0-11.482-9.351-20.833-20.833-20.833zm0 14.583c3.476 0 6.25 2.774 6.25 6.25s-2.774 6.25-6.25 6.25-6.25-2.774-6.25-6.25 2.774-6.25 6.25-6.25z"/><path d="M0 0h50v50H0z"/></g></symbol><symbol id="fb" viewBox="0 0 50 50"><g fill="none" fill-rule="evenodd"><path d="M0 0h50v50H0z"/><path fill="#141d20" fill-rule="nonzero" d="M25 4.167C13.494 4.167 4.167 13.494 4.167 25c0 10.444 7.693 19.069 17.718 20.575V30.521h-5.154v-5.477h5.154V21.4c0-6.033 2.94-8.681 7.955-8.681 2.402 0 3.67.177 4.272.258v4.78h-3.42c-2.13 0-2.873 2.018-2.873 4.293v2.994h6.24l-.846 5.477H27.82v15.098C37.99 44.242 45.833 35.546 45.833 25c0-11.506-9.327-20.833-20.833-20.833z"/></g></symbol><symbol id="instagram" viewBox="0 0 50 50"><g fill="none" fill-rule="evenodd"><path d="M0 0h50v50H0z"/><path fill="#141d20" fill-rule="nonzero" d="M16.667 6.25c-5.752 0-10.417 4.665-10.417 10.417v16.666c0 5.752 4.665 10.417 10.417 10.417h16.666c5.752 0 10.417-4.665 10.417-10.417V16.667c0-5.752-4.665-10.417-10.417-10.417H16.667zM37.5 10.417a2.084 2.084 0 11-.001 4.167 2.084 2.084 0 01.001-4.167zM25 14.583c5.752 0 10.417 4.665 10.417 10.417S30.752 35.417 25 35.417 14.583 30.752 14.583 25 19.248 14.583 25 14.583zm0 4.167a6.25 6.25 0 100 12.5 6.25 6.25 0 000-12.5z"/></g></symbol><symbol id="location" viewBox="0 0 16 16"><g fill="none" fill-rule="evenodd"><path d="M0 0h16v16H0z"/><path fill="#F2F4F8" fill-rule="nonzero" d="M8 0c3.59 0 6.5 2.951 6.5 6.591 0 4.335-4.226 6.351-4.755 6.834-.542.494-.988 1.484-1.168 2.11A.616.616 0 018 16a.616.616 0 01-.577-.465c-.18-.627-.627-1.616-1.168-2.11l-.094-.075c-.81-.596-4.661-2.62-4.661-6.76C1.5 2.951 4.41 0 8 0zm0 4.708c-1.026 0-1.857.843-1.857 1.883S6.973 8.474 8 8.474c1.026 0 1.857-.842 1.857-1.883 0-1.04-.83-1.883-1.857-1.883z"/></g></symbol><symbol id="minus" viewBox="0 0 16 16"><g fill="none" fill-rule="evenodd"><path d="M0 0h16v16H0z"/><path fill="#141D20" fill-rule="nonzero" d="M14 7v2H2V7z"/></g></symbol><symbol id="phone" viewBox="0 0 50 50"><g fill="none" fill-rule="evenodd"><path d="M0 0h50v50H0z"/><path fill="#F2F4F8" fill-rule="nonzero" d="M32.813 30.938l-5.292 5.27c-3.192-1.68-5.748-3.64-7.913-5.816-2.177-2.165-4.135-4.721-5.816-7.913l5.27-5.291L17.733 6.25H6.25v2.083c0 9.457 3.833 18.488 10.346 25.071 6.583 6.513 15.614 10.346 25.07 10.346h2.084V32.267l-10.938-1.33z"/></g></symbol><symbol id="plus-white" viewBox="0 0 16 16"><g fill="none" fill-rule="evenodd"><path d="M0 0h16v16H0z"/><path fill="#F2F4F8" fill-rule="nonzero" d="M9 2v5h5v2H9v5H7V9H2V7h5V2z"/></g></symbol><symbol id="plus" viewBox="0 0 16 16"><g fill="none" fill-rule="evenodd"><path d="M0 0h16v16H0z"/><path fill="#141D20" fill-rule="nonzero" d="M9 2v5h5v2H9v5H7V9H2V7h5V2z"/></g></symbol><symbol id="twitter" viewBox="0 0 50 50"><g fill="none" fill-rule="evenodd"><path d="M0 0h50v50H0z"/><path fill="#141d20" fill-rule="nonzero" d="M45.833 8.333c-1.625.965-4.885 2.28-6.802 2.659-.056.014-.102.033-.156.048a9.343 9.343 0 00-6.583-2.707 9.376 9.376 0 00-9.375 9.375c0 .273-.023.775 0 1.042-6.986 0-12.302-3.658-16.115-8.333-.414 1.041-.596 2.687-.596 4.233 0 2.919 2.282 5.785 5.834 7.562-.655.17-1.375.29-2.125.29-1.21 0-2.492-.319-3.665-1.285v.106c0 4.08 4.33 6.856 8.18 7.63-.782.46-2.357.505-3.126.505-.542 0-2.458-.248-2.97-.343 1.07 3.343 4.933 5.223 8.614 5.29-2.88 2.258-4.877 3.095-10.773 3.095H4.167c3.725 2.388 8.468 4.169 13.223 4.169 15.479 0 24.277-11.798 24.277-22.919 0-.18-.005-.554-.01-.931 0-.038.01-.073.01-.11 0-.057-.017-.111-.017-.167a30.346 30.346 0 00-.019-.686 17.112 17.112 0 004.202-4.356c-1.51.67-3.13 1.12-4.833 1.325 1.737-1.042 4.206-3.525 4.833-5.492z"/></g></symbol><symbol id="whatsapp" viewBox="0 0 50 50"><g fill="none" fill-rule="evenodd"><path d="M0 0h50v50H0z"/><path fill="#141d20" fill-rule="nonzero" d="M39.744 10.267a20.68 20.68 0 00-14.721-6.1c-11.47 0-20.806 9.33-20.81 20.802a20.744 20.744 0 002.777 10.4L4.167 45.833l10.902-2.577a20.784 20.784 0 009.943 2.534h.009c11.469 0 20.804-9.334 20.81-20.802a20.672 20.672 0 00-6.087-14.721zm-4.54 22.137c-.433 1.215-2.556 2.386-3.51 2.471-.954.087-1.848.431-6.24-1.3-5.285-2.083-8.623-7.502-8.881-7.848-.26-.348-2.123-2.819-2.123-5.377s1.344-3.817 1.82-4.335c.478-.521 1.04-.65 1.388-.65.346 0 .694 0 .996.012.371.015.781.033 1.171.898.463 1.03 1.473 3.6 1.602 3.86.13.26.217.565.044.91-.173.347-.26.563-.519.867-.26.305-.546.678-.78.91-.26.26-.53.543-.228 1.061.304.521 1.346 2.223 2.891 3.6 1.988 1.771 3.66 2.32 4.182 2.582.52.26.823.216 1.127-.132.304-.346 1.3-1.516 1.646-2.037.345-.521.693-.434 1.17-.26.477.172 3.034 1.43 3.553 1.691.52.26.866.39.995.606.13.215.13 1.257-.304 2.471z"/></g></symbol></svg>